<?xml version="1.0" standalone="no"?>
<!DOCTYPE svg PUBLIC "-//W3C//DTD SVG 20010904//EN"
 "http://www.w3.org/TR/2001/REC-SVG-20010904/DTD/svg10.dtd">
<svg version="1.0" xmlns="http://www.w3.org/2000/svg"
 width="34.000000pt" height="37.000000pt" viewBox="0 0 34.000000 37.000000"
 preserveAspectRatio="xMidYMid meet" fill="white">
<metadata>
Created by potrace 1.10, written by Peter Selinger 2001-2011
</metadata>
<g transform="translate(0.000000,37.000000) scale(0.100000,-0.100000)"
fill="white" stroke="none">
<path d="M139 291 c-60 -37 -69 -52 -69 -111 0 -62 14 -82 77 -114 40 -20 57
-20 91 1 62 38 72 54 72 109 0 72 -5 81 -60 109 -53 27 -76 28 -111 6z m102
-23 c44 -24 52 -43 47 -108 -3 -40 -7 -45 -50 -69 l-47 -26 -37 20 c-57 30
-64 41 -64 100 0 53 1 54 43 79 51 31 59 32 108 4z"/>
<path d="M142 242 c-26 -22 -32 -34 -32 -64 0 -33 5 -41 39 -64 37 -24 41 -25
68 -10 43 22 55 40 51 82 -2 31 -10 43 -37 61 -43 29 -49 29 -89 -5z m78 -62
c0 -27 -3 -30 -30 -30 -27 0 -30 3 -30 30 0 27 3 30 30 30 27 0 30 -3 30 -30z"/>
</g>
</svg>
