 <svg version="1.0" xmlns="http://www.w3.org/2000/svg"  width="38.000000pt" height="39.000000pt" viewBox="0 0 38.000000 39.000000"  preserveAspectRatio="xMidYMid meet">
   <g transform="translate(0.000000,39.000000) scale(0.100000,-0.100000)" fill="#ffffff" stroke="none">
        <path d="M132 358 c-7 -7 -12 -25 -12 -41 0 -19 -9 -36 -25 -48 -39 -32 -46 -129 -9 -129 8 0 14 -10 14 -24 0 -34 19 -45 76 -45
        69 1 84 7 84 34 0 14 9 29 20 35 16 8 20 21 20 60 0 40 -4 52 -25 68 -16 13 -25 30 -25 49 0 40 -17 53 -65 53 -23 0 -46 -5 -53
        -12z m86 -57 c-3 -22 -8 -26 -38 -26 -32 0 -35 2 -35 30 0 23 5 30 25 35 33 9 52 -7 48 -39z m46 -67 c9 -24 7 -62 -4 -69 -6 
        -3 -10 5 -10 19 0 14 -4 28 -10 31 -6 4 -10 -16 -10 -54 0 -33 -4 -62 -9 -65 -11 -7 -35 20 -28 32 3 4 1 14 -4 22 -8 13 -10 
        13 -18 0 -5 -8 -7 -18 -4 -22 7 -12 -17 -39 -28 -32 -5 3 -9 29 -9 59 0 30 -4 57 -10 60 -6 4 -10 -7 -10 -25 0 -18 -4 -29 -10
        -25 -11 7 -14 68 -3 78 3 4 41 7 84 7 61 0 78 -3 83 -16z"/> 
        <path d="M32 104 c-59 -41 2 -69 153 -69 89 0 116 3 138 18 35
        23 34 42 -3 57 -40 17 -50 6 -13 -14 l28 -15 -39 -16 c-50 -21 -223 -18 -250 4 -16 14 -16 16 8 28 14 8 26 16 26 18 0 10
        -27 4 -48 -11z"/>
    </g> </svg>