 <svg version="1.0" xmlns="http://www.w3.org/2000/svg"  width="42.000000pt" height="39.000000pt" viewBox="0 0 42.000000 39.000000"  preserveAspectRatio="xMidYMid meet">
   <g transform="translate(0.000000,39.000000) scale(0.100000,-0.100000)" fill="#ffffff" stroke="none">
        <path d="M52 354 c-11 -8 -14 -38 -14 -148 1 -75 4 -141 7 -146 3 -6 48 -10 100 -10 73 0 94 3 99 15 4 13 -9 15 -90 15 l-95 0
        3 128 3 127 135 0 135 0 -1 -82 c-1 -73 1 -83 16 -83 16 0 17 10 14 91 -2 50 -5 94 -8 96 -10 10 -289 8 -304 -3z"/>
        <path d="M102 268 l3 -33 95 0 95 0 0 30 0 30 -98 3 -98 3 3 -33z m178 2 c0 -6 -33 -10 -80 -10 -47 0 -80 4 -80 10 0 6 33 10 80 10 47 0 80 -4 80 -10z"/> 
        <path d="M95 190 c-3 -5 0 -13 8 -16 23 -9 112 0 110 11 -4 14 -110 19 -118 5z"/> 
        <path d="M95 130 c-3 -5 0 -13 8 -16 23 -9 112 0 110 11 -4 14 -110 19 -118 5z"/> 
        <path d="M260 125 c0 -11 11 -15 37 -15 l38 0 -38 -31 c-20 -17 -37 -37 -37 -45 0 -26 28 -15 59 23 l31 38 0 -39 c0 -62 25 -39 28 27 l3 57 -61 0 c-47 0 -60 -3 -60 -15z"/>
    </g> 
 </svg> 