 <svg version="1.0" xmlns="http://www.w3.org/2000/svg"  width="39.000000pt" height="39.000000pt" viewBox="0 0 39.000000 39.000000"  preserveAspectRatio="xMidYMid meet">
   <g transform="translate(0.000000,39.000000) scale(0.100000,-0.100000)" fill="#ffffff" stroke="none">
        <path d="M37 364 c-3 -3 6 -30 19 -59 l25 -53 -25 -51 c-13 -28 -20 -53 -15 -56 9 -6 167 95 168 107 1 6 -52 43 -155 110 -6 4 -14 5 -17 2z m96 -88
        l28 -23 -35 -27 c-39 -29 -41 -29 -25 7 8 18 8 30 0 46 -15 27 -3 26 32 -3z"/>
        <path d="M275 210 c-38 -28 -74 -52 -80 -55 -5 -2 -2 -10 8 -17 10 -7 48 -34 84 -60 37 -26 70 -45 74 -42 4 2 -3 29 -16 59
        l-24 54 19 43 c21 45 25 68 13 68 -5 -1 -39 -23 -78 -50z m25 -40 c-9 -17 -9 -29 -1 -46 13 -30 4 -30 -34 2 -25 20 -27 26 -15 34 8 5 24 15 35 23 25 19 30 15 15 -13z"/>
    </g> 
 </svg> 